<svg xmlns="http://www.w3.org/2000/svg" version="1.1" xmlns:xlink="http://www.w3.org/1999/xlink" xmlns:svgjs="http://svgjs.dev/svgjs" width="100%" height="100%" viewBox="0 0 1000 600"><rect width="1000" height="600" x="0" y="0" fill="#99f443"/><g><rect width="333.3333333333333" height="333.3333333333333" rx="13.333333333333334" ry="13.333333333333334" y="371.84568418430973" fill="#ec449b" transform="matrix(0.3575274997686948,0,0,0.3575274997686947,0,107.46702849060338)" x="349.6236267089844"/><path d="M462.6255865784603 613.5123459109373L442.4899313387391 613.5123459109373L442.4899313387391 463.51234405726774L474.6523127849906 463.51234405726774L508.75840755755 560.8194924555582Q510.06433994866313 564.7372896288978 511.4917544226705 569.4447203410498Q512.9191688966779 574.1521510532018 514.1036192048969 578.3129123923295Q515.3184400338392 582.4736737314574 515.956220969034 585.5107258038136L515.956220969034 585.5107258038136L517.5051175259357 585.5107258038136Q518.1428984611305 582.230709565669 519.2362372071786 577.9788366643704Q520.3295759532268 573.7269637630718 521.6658788650636 569.1106446130905Q522.9718112561767 564.5246959838328 524.0651500022249 560.8194924555582L524.0651500022249 560.8194924555582L558.1712447747843 463.51234405726774L590.0906620552473 463.51234405726774L590.0906620552473 613.5123459109373L569.3172258803313 613.5123459109373L569.3172258803313 525.6200589369507Q569.3172258803313 518.817062294873 569.5298195253963 510.8599858652999Q569.7727836911847 502.8725389150033 569.9853773362497 496.19102435581976Q570.1979709813146 489.53988031735986 570.1979709813146 486.6850513693451L570.1979709813146 486.6850513693451L568.436480779348 486.6850513693451Q567.7986998441532 489.53988031735986 566.2498032872516 494.6724983196417Q564.7312772510735 499.8051163219236 563.0912691320012 505.39329213505886Q561.4512610129289 510.9510974274706 560.1453286218158 515.3244524116635L560.1453286218158 515.3244524116635L524.9458951032082 613.5123459109373L506.99691735558343 613.5123459109373L471.7974838369758 515.3244524116635Q470.4915514458627 511.61924888338893 469.0641369718553 506.699224526172Q467.6367224978479 501.7792001689551 466.20930802384055 496.52510008377897Q464.8122640705567 491.27099999860286 463.47596115872 486.6850513693451L463.47596115872 486.6850513693451L461.95743512254194 486.6850513693451Q462.1700287676069 491.4835936436678 462.29151085050114 498.5902954929811Q462.3826224126718 505.6969973422945 462.504104495566 512.8036991916078Q462.6255865784603 519.9104010409212 462.6255865784603 525.6200589369507L462.6255865784603 525.6200589369507L462.6255865784603 613.5123459109373Z " fill="#99f443" transform="matrix(0.3575274997686948,0,0,0.3575274997686947,0,107.46702849060338)"/><path d="M835.5978011736992 613.5123291119423L835.5978011736992 613.5123291119423Q813.4147037740063 613.5123291119423 797.9804323027913 605.3843952763407Q782.5755035530045 597.2564614407388 774.4182269959746 580.6778238338254Q766.2902931603728 564.0991862269121 766.2902931603728 538.5123331415521L766.2902931603728 538.5123331415521Q766.2902931603728 500.7189079420752 784.6881794958324 482.1156225566184Q803.0567231098639 463.5123371711616 835.8032002236963 463.5123371711616L835.8032002236963 463.5123371711616Q854.4064856091532 463.5123371711616 868.7550763875258 469.5569377853637Q883.1330098873268 475.5721956781376 891.2609437229287 487.72008234939796Q899.3888775585306 499.8679690206584 899.3888775585306 518.2365126346899L899.3888775585306 518.2365126346899L879.1130570516682 518.2365126346899Q879.1130570516682 505.5604569777225 873.713996308886 497.315152256408Q868.3442782875316 489.09919025652175 858.6318374948089 484.9618665351504Q848.890053980658 480.8538855352073 835.8032002236963 480.8538855352073L835.8032002236963 480.8538855352073Q820.6036705239067 480.8538855352073 809.6001499883448 486.7517725422685Q798.6259721742109 492.6790022707579 792.9041414957187 505.0322879920155Q787.2116535386547 517.3855737132731 787.2116535386547 536.8397980201466L787.2116535386547 536.8397980201466L787.2116535386547 541.2705489557995Q787.2116535386547 560.4900314912479 792.9041414957187 572.6379181625082Q798.6259721742109 584.7858048337687 809.5121218240602 590.5076355122608Q820.3689287524815 596.200123469325 835.8032002236963 596.200123469325L835.8032002236963 596.200123469325Q849.3301948020805 596.200123469325 859.1600064805159 592.1801706336664Q868.960475437523 588.1602177980076 874.3595361803054 579.8268849124088Q879.7585969230879 571.4935520268098 879.7585969230879 558.8174963698424L879.7585969230879 558.8174963698424L899.3888775585306 558.8174963698424Q899.3888775585306 577.5968380838681 891.0555446729315 589.6566965908441Q882.6928690659045 601.6872123763919 868.3442782875316 607.6144421048812Q853.9663447877306 613.5123291119423 835.5978011736992 613.5123291119423ZM992.5520180929552 613.5123291119423L992.5520180929552 613.5123291119423Q969.958122593268 613.5123291119423 953.7902830863488 605.2963671120563Q937.6224435794297 597.0510623907417 928.8783125938367 580.3550538981158Q920.1048388868151 563.6590454054897 920.1048388868151 538.5123331415521L920.1048388868151 538.5123331415521Q920.1048388868151 513.1602218276173 928.8783125938367 496.58158422070386Q937.6224435794297 480.00294661379047 953.7902830863488 471.75764189247604Q969.958122593268 463.5123371711616 992.5520180929552 463.5123371711616L992.5520180929552 463.5123371711616Q1015.1752563140706 463.5123371711616 1031.3430958209897 471.75764189247604Q1047.4815926064805 480.00294661379047 1056.255066313502 496.58158422070386Q1065.0285400205235 513.1602218276173 1065.0285400205235 538.5123331415521L1065.0285400205235 538.5123331415521Q1065.0285400205235 563.6590454054897 1056.255066313502 580.3550538981158Q1047.4815926064805 597.0510623907417 1031.3430958209897 605.2963671120563Q1015.1752563140706 613.5123291119423 992.5520180929552 613.5123291119423ZM992.5520180929552 596.200123469325L992.5520180929552 596.200123469325Q1004.4064775499339 596.200123469325 1014.0015474569441 593.031109555083Q1023.6259600853823 589.8620956408413 1030.2867578495757 582.9958988266505Q1036.9182128923412 576.1297020124598 1040.5273676280053 565.683693184033Q1044.1071796422416 555.2083416341782 1044.1071796422416 540.8597508558053L1044.1071796422416 540.8597508558053L1044.1071796422416 536.3996571987241Q1044.1071796422416 521.8456673703542 1040.5273676280053 511.3703158204992Q1036.9182128923412 500.92430699207233 1030.2867578495757 494.0581101778817Q1023.6259600853823 487.191913363691 1014.0015474569441 484.02289944944914Q1004.4064775499339 480.8538855352073 992.5520180929552 480.8538855352073L992.5520180929552 480.8538855352073Q980.5215023074074 480.8538855352073 971.0144605646819 484.02289944944914Q961.5074188219564 487.191913363691 954.7585928934784 494.0581101778817Q947.9804242435721 500.92430699207233 944.4886403936205 511.3703158204992Q941.0261992650969 521.8456673703542 941.0261992650969 536.3996571987241L941.0261992650969 536.3996571987241L941.0261992650969 540.8597508558053Q941.0261992650969 555.2083416341782 944.4886403936205 565.683693184033Q947.9804242435721 576.1297020124598 954.7585928934784 582.9958988266505Q961.5074188219564 589.8620956408413 971.0144605646819 593.031109555083Q980.5215023074074 596.200123469325 992.5520180929552 596.200123469325ZM1113.414687655568 610.9888550691203L1093.9604633486945 610.9888550691203L1093.9604633486945 466.065153935412L1113.414687655568 466.065153935412L1183.74919091888 561.5463694626618Q1184.805528890294 562.8081064840728 1186.5074067331277 565.3609232483233Q1188.2092845759612 567.8843972911454 1189.8818196973666 570.3198431696833Q1191.5836975402003 572.7552890482209 1192.640035511614 574.6625659410515L1192.640035511614 574.6625659410515L1193.490974433031 574.6625659410515Q1193.490974433031 571.2588102553846 1193.490974433031 568.0017681768581Q1193.490974433031 564.7153833769037 1193.490974433031 561.5463694626618L1193.490974433031 561.5463694626618L1193.490974433031 466.065153935412L1213.1212550684736 466.065153935412L1213.1212550684736 610.9888550691203L1194.752711454442 610.9888550691203L1123.537926548285 513.8057616990369Q1122.0707904768767 511.48768670621183 1119.2245464983446 507.262334820556Q1116.3783025198127 503.03698293490027 1114.4710256269818 500.48416617064987L1114.4710256269818 500.48416617064987L1113.414687655568 500.48416617064987Q1113.414687655568 503.887921856317 1113.414687655568 507.14496393484336Q1113.414687655568 510.4313487347979 1113.414687655568 513.8057616990369L1113.414687655568 513.8057616990369L1113.414687655568 610.9888550691203ZM1269.5473083748354 610.9888550691203L1249.4768869179704 610.9888550691203L1249.4768869179704 466.065153935412L1352.1470691951206 466.065153935412L1352.1470691951206 483.3773595780295L1269.5473083748354 483.3773595780295L1269.5473083748354 529.8562303202433L1344.7527033952229 529.8562303202433L1344.7527033952229 546.9630369128637L1269.5473083748354 546.9630369128637L1269.5473083748354 610.9888550691203ZM1491.583681421762 610.9888550691203L1378.7609175304665 610.9888550691203L1378.7609175304665 466.065153935412L1490.321944400351 466.065153935412L1490.321944400351 483.3773595780295L1398.8313389873317 483.3773595780295L1398.8313389873317 528.1836951988379L1481.0203017076226 528.1836951988379L1481.0203017076226 545.4959008414554L1398.8313389873317 545.4959008414554L1398.8313389873317 593.6766494265028L1491.583681421762 593.6766494265028L1491.583681421762 610.9888550691203ZM1575.034381163464 613.5123291119423L1575.034381163464 613.5123291119423Q1563.2092644279135 613.5123291119423 1552.323114778064 611.1942541191174Q1541.4369651282148 608.8761791262923 1532.9862613569032 603.7118601549353Q1524.5355575855915 598.5181984621499 1519.5766376642316 590.2728937408356Q1514.6177177428715 582.0569317409493 1514.6177177428715 569.9970732339734L1514.6177177428715 569.9970732339734Q1514.6177177428715 568.9407352625594 1514.7057459071564 567.8843972911454Q1514.8231167928689 566.8280593197316 1514.8231167928689 565.7717213483177L1514.8231167928689 565.7717213483177L1535.0989372997312 565.7717213483177Q1535.0989372997312 566.4172612197372 1534.9815664140185 567.796369126861Q1534.8935382497339 569.1461343125566 1534.8935382497339 570.2024722839706L1534.8935382497339 570.2024722839706Q1534.8935382497339 578.6531760552821 1539.9698290568065 584.5804057837715Q1545.016777142451 590.5076355122608 1553.9956498994695 593.3538794907929Q1562.974522656488 596.200123469325 1574.3888412920444 596.200123469325L1574.3888412920444 596.200123469325Q1579.465132099117 596.200123469325 1585.0695918918966 595.5545835979053Q1590.674051684676 594.9383864479139 1595.8383706560332 593.3538794907929Q1601.0026896273903 591.7693725336719 1605.1400133487616 589.1285276051372Q1609.2479943487047 586.4876826766022 1611.6834402272423 582.5851007266563Q1614.1188861057801 578.6531760552821 1614.1188861057801 572.960688098218L1614.1188861057801 572.960688098218Q1614.1188861057801 565.7717213483177 1609.9815623844088 561.0182004769548Q1605.8735813844658 556.264679605592 1599.1247554559877 553.2130365770629Q1592.3465868060814 550.1320508271056 1583.8078548704855 547.725947669996Q1575.2397802134612 545.2905017914582 1566.14353657073 542.9724267986333Q1557.076635649427 540.6250090843799 1548.5085609924026 537.5733660558508Q1539.9698290568065 534.5217230273215 1533.1916604069004 529.9736012059559Q1526.4428344784224 525.4254793845903 1522.305510757051 518.6766534561123Q1518.197529757108 511.89848480620617 1518.197529757108 502.18604401348347L1518.197529757108 502.18604401348347Q1518.197529757108 493.08980037075224 1521.8947126570567 485.93017634227994Q1525.5918955570055 478.7412095923794 1532.8688904711905 473.78228967101944Q1540.1752281068036 468.79402702823137 1550.9440068709403 466.1531820996965Q1561.712785635077 463.5123371711616 1575.6505783134555 463.5123371711616L1575.6505783134555 463.5123371711616Q1587.0648969490117 463.5123371711616 1596.8947086274472 465.94778304969935Q1606.7245203058826 468.3832289282371 1614.2069142700645 473.342148849597Q1621.7186509556748 478.30106877095693 1625.9440028413308 485.93017634227994Q1630.1693547269865 493.5299411921747 1630.1693547269865 504.29871995631134L1630.1693547269865 504.29871995631134L1630.1693547269865 506.82219399913356L1610.3043323201186 506.82219399913356L1610.3043323201186 503.65318008489174Q1610.3043323201186 496.4935560564194 1605.8735813844658 491.4172652493468Q1601.4428304488129 486.3409744422742 1593.7256947132053 483.5827586280267Q1586.0085589775979 480.8538855352073 1576.2961181848752 480.8538855352073L1576.2961181848752 480.8538855352073Q1563.6200625279077 480.8538855352073 1555.1693587565962 483.289331413745Q1546.7186549852845 485.69543457085456 1542.6106739853415 490.2435563922202Q1538.47335026397 494.7916782135858 1538.47335026397 500.48416617064987L1538.47335026397 500.48416617064987Q1538.47335026397 507.0569357705589 1542.6106739853415 511.48768670621183Q1546.7186549852845 515.9184376418648 1553.4674809137625 518.7646816203968Q1560.2456495636686 521.6109255989288 1568.9017523849775 523.958343313182Q1577.5578552062861 526.2764183060071 1586.5367279633047 528.7118641845449Q1595.5156007203234 531.1179673416544 1604.0836753773476 534.1989530916118Q1612.6224073129438 537.2505961201409 1619.4886041271345 541.7987179415065Q1626.354800941325 546.3468397628722 1630.3747537769837 553.2130365770629Q1634.3947066126423 560.0792333912535 1634.3947066126423 569.9970732339734L1634.3947066126423 569.9970732339734Q1634.3947066126423 585.4313447051884 1626.7949417627476 595.0264146121983Q1619.1951769128527 604.6508272406365 1605.8735813844658 609.0815781762894Q1592.5519858560785 613.5123291119423 1575.034381163464 613.5123291119423ZM1717.1998664829248 613.5123291119423L1717.1998664829248 613.5123291119423Q1705.3747497473742 613.5123291119423 1694.488600097525 611.1942541191174Q1683.6317931691037 608.8761791262923 1675.181089397792 603.7118601549353Q1666.7303856264805 598.5181984621499 1661.7421229836923 590.2728937408356Q1656.7832030623324 582.0569317409493 1656.7832030623324 569.9970732339734L1656.7832030623324 569.9970732339734Q1656.7832030623324 568.9407352625594 1656.9005739480451 567.8843972911454Q1656.9886021123295 566.8280593197316 1656.9886021123295 565.7717213483177L1656.9886021123295 565.7717213483177L1677.29376534062 565.7717213483177Q1677.29376534062 566.4172612197372 1677.1763944549073 567.796369126861Q1677.0590235691946 569.1461343125566 1677.0590235691946 570.2024722839706L1677.0590235691946 570.2024722839706Q1677.0590235691946 578.6531760552821 1682.1353143762674 584.5804057837715Q1687.2116051833398 590.5076355122608 1696.1904779403583 593.3538794907929Q1705.169350697377 596.200123469325 1716.5836693329331 596.200123469325L1716.5836693329331 596.200123469325Q1721.6599601400058 596.200123469325 1727.2350772113575 595.5545835979053Q1732.839537004137 594.9383864479139 1738.033198696922 593.3538794907929Q1743.1975176682793 591.7693725336719 1747.3054986682223 589.1285276051372Q1751.4428223895936 586.4876826766022 1753.8782682681315 582.5851007266563Q1756.284371425241 578.6531760552821 1756.284371425241 572.960688098218L1756.284371425241 572.960688098218Q1756.284371425241 565.7717213483177 1752.1763904252978 561.0182004769548Q1748.0684094253545 556.264679605592 1741.2902407754484 553.2130365770629Q1734.5414148469704 550.1320508271056 1725.9733401899462 547.725947669996Q1717.43460825435 545.2905017914582 1708.3383646116188 542.9724267986333Q1699.2421209688875 540.6250090843799 1690.7033890332916 537.5733660558508Q1682.1353143762674 534.5217230273215 1675.3864884477891 529.9736012059559Q1668.608319797883 525.4254793845903 1664.5003387979398 518.6766534561123Q1660.3923577979967 511.89848480620617 1660.3923577979967 502.18604401348347L1660.3923577979967 502.18604401348347Q1660.3923577979967 493.08980037075224 1664.0895406979455 485.93017634227994Q1667.7867235978945 478.7412095923794 1675.0637185120793 473.78228967101944Q1682.3407134262645 468.79402702823137 1693.1388349118295 466.1531820996965Q1703.9076136759656 463.5123371711616 1717.8454063543443 463.5123371711616L1717.8454063543443 463.5123371711616Q1729.2597249899006 463.5123371711616 1739.089536668336 465.94778304969935Q1748.8900056253435 468.3832289282371 1756.4017423109535 473.342148849597Q1763.913478996564 478.30106877095693 1768.1388308822195 485.93017634227994Q1772.3641827678755 493.5299411921747 1772.3641827678755 504.29871995631134L1772.3641827678755 504.29871995631134L1772.3641827678755 506.82219399913356L1752.4991603610076 506.82219399913356L1752.4991603610076 503.65318008489174Q1752.4991603610076 496.4935560564194 1748.0684094253545 491.4172652493468Q1743.6083157682735 486.3409744422742 1735.9205227540942 483.5827586280267Q1728.2033870184866 480.8538855352073 1718.490946225764 480.8538855352073L1718.490946225764 480.8538855352073Q1705.8148905687965 480.8538855352073 1697.364186797485 483.289331413745Q1688.9134830261735 485.69543457085456 1684.7761593048021 490.2435563922202Q1680.668178304859 494.7916782135858 1680.668178304859 500.48416617064987L1680.668178304859 500.48416617064987Q1680.668178304859 507.0569357705589 1684.7761593048021 511.48768670621183Q1688.9134830261735 515.9184376418648 1695.6623089546513 518.7646816203968Q1702.4111348831295 521.6109255989288 1711.0965804258665 523.958343313182Q1719.7526832471751 526.2764183060071 1728.7315560041936 528.7118641845449Q1737.7104287612121 531.1179673416544 1746.2491606968083 534.1989530916118Q1754.8172353538325 537.2505961201409 1761.6834321680233 541.7987179415065Q1768.549628982214 546.3468397628722 1772.5695818178726 553.2130365770629Q1776.5895346535312 560.0792333912535 1776.5895346535312 569.9970732339734L1776.5895346535312 569.9970732339734Q1776.5895346535312 585.4313447051884 1768.960427082208 595.0264146121983Q1761.3606622323134 604.6508272406365 1748.0684094253545 609.0815781762894Q1734.7468138969675 613.5123291119423 1717.1998664829248 613.5123291119423ZM1826.237419309987 610.9888550691203L1806.166997853122 610.9888550691203L1806.166997853122 466.065153935412L1826.237419309987 466.065153935412L1826.237419309987 610.9888550691203ZM1927.645864565726 613.5123291119423L1927.645864565726 613.5123291119423Q1905.022626344611 613.5123291119423 1888.8547868376916 605.2963671120563Q1872.7162900522005 597.0510623907417 1863.9428163451792 580.3550538981158Q1855.1693426381578 563.6590454054897 1855.1693426381578 538.5123331415521L1855.1693426381578 538.5123331415521Q1855.1693426381578 513.1602218276173 1863.9428163451792 496.58158422070386Q1872.7162900522005 480.00294661379047 1888.8547868376916 471.75764189247604Q1905.022626344611 463.5123371711616 1927.645864565726 463.5123371711616L1927.645864565726 463.5123371711616Q1950.2397600654133 463.5123371711616 1966.4075995723322 471.75764189247604Q1982.5754390792515 480.00294661379047 1991.3195700648446 496.58158422070386Q2000.093043771866 513.1602218276173 2000.093043771866 538.5123331415521L2000.093043771866 538.5123331415521Q2000.093043771866 563.6590454054897 1991.3195700648446 580.3550538981158Q1982.5754390792515 597.0510623907417 1966.4075995723322 605.2963671120563Q1950.2397600654133 613.5123291119423 1927.645864565726 613.5123291119423ZM1927.645864565726 596.200123469325L1927.645864565726 596.200123469325Q1939.4709813012767 596.200123469325 1949.0660512082866 593.031109555083Q1958.6904638367248 589.8620956408413 1965.3512616009182 582.9958988266505Q1972.012059365112 576.1297020124598 1975.5918713793483 565.683693184033Q1979.171683393584 555.2083416341782 1979.171683393584 540.8597508558053L1979.171683393584 540.8597508558053L1979.171683393584 536.3996571987241Q1979.171683393584 521.8456673703542 1975.5918713793483 511.3703158204992Q1972.012059365112 500.92430699207233 1965.3512616009182 494.0581101778817Q1958.6904638367248 487.191913363691 1949.0660512082866 484.02289944944914Q1939.4709813012767 480.8538855352073 1927.645864565726 480.8538855352073L1927.645864565726 480.8538855352073Q1915.58600605875 480.8538855352073 1906.078964316025 484.02289944944914Q1896.571922573299 487.191913363691 1889.8230966448211 494.0581101778817Q1883.044927994915 500.92430699207233 1879.582486866391 511.3703158204992Q1876.0907030164396 521.8456673703542 1876.0907030164396 536.3996571987241L1876.0907030164396 536.3996571987241L1876.0907030164396 540.8597508558053Q1876.0907030164396 555.2083416341782 1879.582486866391 565.683693184033Q1883.044927994915 576.1297020124598 1889.8230966448211 582.9958988266505Q1896.571922573299 589.8620956408413 1906.078964316025 593.031109555083Q1915.58600605875 596.200123469325 1927.645864565726 596.200123469325ZM2048.47919140691 610.9888550691203L2029.054309821465 610.9888550691203L2029.054309821465 466.065153935412L2048.47919140691 466.065153935412L2118.843037391651 561.5463694626618Q2119.899375363065 562.8081064840728 2121.57191048447 565.3609232483233Q2123.273788327304 567.8843972911454 2124.9463234487093 570.3198431696833Q2126.648201291543 572.7552890482209 2127.704539262957 574.6625659410515L2127.704539262957 574.6625659410515L2128.555478184374 574.6625659410515Q2128.555478184374 571.2588102553846 2128.555478184374 568.0017681768581Q2128.555478184374 564.7153833769037 2128.555478184374 561.5463694626618L2128.555478184374 561.5463694626618L2128.555478184374 466.065153935412L2148.1857588198163 466.065153935412L2148.1857588198163 610.9888550691203L2129.817215205785 610.9888550691203L2058.631773021056 513.8057616990369Q2057.135294228219 511.48768670621183 2054.2890502496875 507.262334820556Q2051.442806271155 503.03698293490027 2049.535529378325 500.48416617064987L2049.535529378325 500.48416617064987L2048.47919140691 500.48416617064987Q2048.47919140691 503.887921856317 2048.47919140691 507.14496393484336Q2048.47919140691 510.4313487347979 2048.47919140691 513.8057616990369L2048.47919140691 513.8057616990369L2048.47919140691 610.9888550691203ZM2237.7690873400043 613.5123291119423L2237.7690873400043 613.5123291119423Q2225.943970604454 613.5123291119423 2215.0578209546047 611.1942541191174Q2204.1716713047554 608.8761791262923 2195.7209675334443 603.7118601549353Q2187.2702637621323 598.5181984621499 2182.3113438407727 590.2728937408356Q2177.352423919412 582.0569317409493 2177.352423919412 569.9970732339734L2177.352423919412 569.9970732339734Q2177.352423919412 568.9407352625594 2177.4697948051253 567.8843972911454Q2177.5578229694092 566.8280593197316 2177.5578229694092 565.7717213483177L2177.5578229694092 565.7717213483177L2197.8336434762723 565.7717213483177Q2197.8336434762723 566.4172612197372 2197.7456153119874 567.796369126861Q2197.6282444262743 569.1461343125566 2197.6282444262743 570.2024722839706L2197.6282444262743 570.2024722839706Q2197.6282444262743 578.6531760552821 2202.704535233347 584.5804057837715Q2207.78082604042 590.5076355122608 2216.7596987974384 593.3538794907929Q2225.738571554457 596.200123469325 2237.1528901900137 596.200123469325L2237.1528901900137 596.200123469325Q2242.1998382756574 596.200123469325 2247.8042980684377 595.5545835979053Q2253.408757861217 594.9383864479139 2258.573076832574 593.3538794907929Q2263.766738525359 591.7693725336719 2267.8747195253027 589.1285276051372Q2272.012043246674 586.4876826766022 2274.418146403783 582.5851007266563Q2276.853592282321 578.6531760552821 2276.853592282321 572.960688098218L2276.853592282321 572.960688098218Q2276.853592282321 565.7717213483177 2272.7456112823784 561.0182004769548Q2268.6082875610064 556.264679605592 2261.859461632529 553.2130365770629Q2255.1106357040508 550.1320508271056 2246.5425610470256 547.725947669996Q2237.9744863900023 545.2905017914582 2228.907585468699 542.9724267986333Q2219.8113418259672 540.6250090843799 2211.2726098903713 537.5733660558508Q2202.704535233347 534.5217230273215 2195.955709304869 529.9736012059559Q2189.177540654963 525.4254793845903 2185.0695596550195 518.6766534561123Q2180.9322359336484 511.89848480620617 2180.9322359336484 502.18604401348347L2180.9322359336484 502.18604401348347Q2180.9322359336484 493.08980037075224 2184.629418833598 485.93017634227994Q2188.3266017335463 478.7412095923794 2195.6329393691594 473.78228967101944Q2202.9099342833442 468.79402702823137 2213.6787130474813 466.1531820996965Q2224.476834533046 463.5123371711616 2238.414627211425 463.5123371711616L2238.414627211425 463.5123371711616Q2249.828945846981 463.5123371711616 2259.629414803988 465.94778304969935Q2269.459226482423 468.3832289282371 2276.9709631680334 473.342148849597Q2284.4533571322154 478.30106877095693 2288.6787090178714 485.93017634227994Q2292.9040609035274 493.5299411921747 2292.9040609035274 504.29871995631134L2292.9040609035274 504.29871995631134L2292.9040609035274 506.82219399913356L2273.068381218088 506.82219399913356L2273.068381218088 503.65318008489174Q2273.068381218088 496.4935560564194 2268.6082875610064 491.4172652493468Q2264.1775366253532 486.3409744422742 2256.460400889746 483.5827586280267Q2248.772607875567 480.8538855352073 2239.0308243614163 480.8538855352073L2239.0308243614163 480.8538855352073Q2226.3547687044484 480.8538855352073 2217.9040649331373 483.289331413745Q2209.4533611618253 485.69543457085456 2205.3453801618825 490.2435563922202Q2201.237399161939 494.7916782135858 2201.237399161939 500.48416617064987L2201.237399161939 500.48416617064987Q2201.237399161939 507.0569357705589 2205.3453801618825 511.48768670621183Q2209.4533611618253 515.9184376418648 2216.231529811732 518.7646816203968Q2222.9803557402092 521.6109255989288 2231.6364585615183 523.958343313182Q2240.321904104255 526.2764183060071 2249.3007768612733 528.7118641845449Q2258.2796496182928 531.1179673416544 2266.8183815538887 534.1989530916118Q2275.386456210913 537.2505961201409 2282.2526530251034 541.7987179415065Q2289.118849839294 546.3468397628722 2293.138802674953 553.2130365770629Q2297.1294127891833 560.0792333912535 2297.1294127891833 569.9970732339734L2297.1294127891833 569.9970732339734Q2297.1294127891833 585.4313447051884 2289.529647939288 595.0264146121983Q2281.929883089394 604.6508272406365 2268.6082875610064 609.0815781762894Q2255.316034754048 613.5123291119423 2237.7690873400043 613.5123291119423ZM2390.9380931950272 610.9888550691203L2370.8676717381622 610.9888550691203L2370.8676717381622 466.065153935412L2390.9380931950272 466.065153935412L2390.9380931950272 610.9888550691203ZM2447.3641465013898 610.9888550691203L2427.293725044524 610.9888550691203L2427.293725044524 466.065153935412L2447.3641465013898 466.065153935412L2447.3641465013898 610.9888550691203Z " fill="#ec449b" transform="matrix(0.3575274997686948,0,0,0.3575274997686947,0,107.46702849060338)"/></g></svg>